MarkerMocapFLsDeGroote.mot
version=1
nRows=25
nColumns=39
inDegrees=no
endheader
time	tibant_l	tibpost_l	gasmed_l	gaslat_l	soleus_l	edl_l	ehl_l	fdl_l	fhl_l	perbrev_l	perlong_l	bflh_l	bfsh_l	recfem_l	semimem_l	semiten_l	vasint_l	vaslat_l	vasmed_l	tibant_r	tibpost_r	gasmed_r	gaslat_r	soleus_r	edl_r	ehl_r	fdl_r	fhl_r	perbrev_r	perlong_r	bflh_r	bfsh_r	recfem_r	semimem_r	semiten_r	vasint_r	vaslat_r	vasmed_r
24.74000000	0.36479183	0.38400151	0.53800930	0.52885623	0.39010211	0.50394482	0.46368033	0.49883245	0.46525133	0.23821851	0.47275723	0.40011225	0.23277923	0.49702561	0.39632152	0.44413578	0.28069954	0.29365725	0.26981744	0.36750247	0.38319803	0.53334869	0.52030133	0.38718286	0.50620114	0.46604206	0.49809475	0.46415179	0.23763615	0.47209132	0.41734186	0.22451791	0.49157442	0.40797005	0.45879234	0.29616985	0.30902108	0.28513391
24.75000000	0.36435575	0.38412305	0.53849701	0.52927799	0.39055440	0.50358315	0.46330163	0.49894316	0.46541904	0.23830903	0.47286141	0.39979111	0.23263365	0.49743653	0.39597244	0.44374181	0.28102320	0.29395098	0.27013392	0.36781081	0.38310120	0.53337461	0.52109956	0.38683875	0.50645876	0.46631161	0.49800524	0.46402027	0.23756771	0.47201353	0.41861857	0.22593997	0.48952886	0.40983182	0.46093794	0.29389555	0.30665700	0.28288407
24.76000000	0.36390760	0.38424579	0.53899272	0.52970060	0.39101430	0.50321182	0.46291279	0.49905471	0.46558884	0.23840118	0.47296765	0.39945949	0.23247641	0.49787018	0.39560598	0.44332924	0.28137085	0.29426830	0.27047431	0.36812957	0.38299989	0.53332457	0.52184909	0.38648035	0.50672530	0.46659048	0.49791146	0.46388285	0.23749646	0.47193266	0.41979687	0.22728583	0.48753082	0.41155390	0.46292322	0.29160641	0.30429347	0.28061152
24.77000000	0.36344782	0.38436949	0.53949479	0.53012540	0.39148102	0.50283122	0.46251421	0.49916685	0.46576038	0.23849479	0.47307577	0.39911482	0.23230727	0.49832841	0.39521959	0.44289520	0.28174249	0.29460957	0.27083866	0.36844113	0.38289967	0.53321641	0.52239383	0.38612743	0.50698605	0.46686325	0.49781856	0.46374712	0.23742634	0.47185317	0.42087754	0.22853893	0.48561419	0.41311471	0.46472351	0.28934911	0.30199174	0.27836705
24.78000000	0.36297827	0.38449351	0.54000094	0.53054978	0.39195236	0.50244289	0.46210752	0.49927899	0.46593284	0.23858943	0.47318530	0.39875469	0.23212532	0.49881329	0.39481110	0.44243680	0.28213953	0.29497645	0.27122843	0.36872383	0.38280770	0.53307704	0.52262605	0.38580495	0.50722282	0.46711094	0.49773320	0.46362273	0.23736230	0.47178067	0.42186395	0.22968350	0.48381014	0.41449940	0.46632193	0.28717395	0.29981316	0.27620522
24.79000000	0.36250041	0.38461735	0.54050857	0.53097068	0.39242659	0.50204806	0.46169398	0.49939067	0.46610553	0.23868477	0.47329583	0.39837739	0.23192839	0.49932750	0.39437879	0.44195130	0.28256596	0.29537307	0.27164761	0.36895136	0.38273296	0.53294259	0.52285989	0.38554384	0.50741353	0.46731040	0.49766375	0.46352175	0.23731048	0.47172205	0.42275839	0.23070332	0.48215133	0.41569970	0.46770886	0.28513844	0.29781915	0.27418678
24.80000000	0.36201237	0.38474140	0.54101923	0.53138777	0.39290528	0.50164519	0.46127201	0.49950222	0.46627902	0.23878112	0.47340776	0.39798200	0.23171230	0.49987530	0.39392079	0.44143563	0.28302981	0.29580748	0.27210421	0.36909380	0.38268583	0.53285889	0.52312900	0.38537965	0.50753298	0.46743534	0.49761993	0.46345814	0.23727790	0.47168523	0.42355911	0.23158079	0.48067604	0.41671248	0.46887989	0.28331004	0.29607138	0.27238034
24.81000000	0.36150780	0.38486710	0.54153815	0.53180472	0.39339424	0.50122907	0.46083613	0.49961491	0.46645536	0.23887966	0.47352248	0.39756786	0.23147126	0.50046245	0.39343450	0.44088597	0.28354219	0.29629084	0.27260927	0.36912383	0.38267587	0.53287134	0.52345905	0.38534497	0.50755817	0.46746168	0.49761067	0.46344469	0.23727102	0.47167746	0.42425942	0.23229861	0.47942696	0.41753858	0.46983446	0.28176146	0.29462703	0.27085727
24.82000000	0.36097944	0.38499599	0.54207092	0.53222514	0.39389986	0.50079372	0.46038009	0.49973008	0.46663677	0.23898171	0.47364151	0.39713462	0.23119891	0.50109514	0.39291669	0.44029805	0.28411462	0.29683507	0.27317431	0.36902882	0.38270736	0.53300872	0.52385522	0.38545462	0.50747848	0.46737834	0.49763996	0.46348720	0.23729277	0.47170204	0.42484827	0.23284578	0.47843959	0.41818272	0.47057602	0.28055104	0.29352304	0.26967237
24.83000000	0.36042505	0.38512825	0.54261782	0.53264829	0.39442339	0.50033736	0.45990201	0.49984785	0.46682358	0.23908753	0.47376523	0.39668272	0.23088968	0.50177861	0.39236385	0.43966806	0.28475613	0.29745012	0.27380845	0.36882461	0.38277468	0.53326441	0.52430291	0.38568946	0.50730728	0.46719927	0.49770252	0.46357809	0.23733938	0.47175474	0.42531131	0.23322552	0.47772735	0.41865312	0.47111225	0.27969741	0.29275850	0.26884022
24.84000000	0.35984902	0.38526248	0.54317176	0.53306641	0.39495984	0.49986363	0.45940573	0.49996693	0.46701391	0.23919614	0.47389249	0.39621249	0.23054054	0.50251563	0.39177237	0.43899298	0.28546972	0.29814038	0.27451483	0.36855999	0.38286112	0.53358662	0.52474842	0.38599210	0.50708558	0.46696737	0.49778279	0.46369496	0.23739946	0.47182273	0.42563197	0.23345809	0.47727733	0.41895896	0.47145254	0.27916983	0.29229207	0.26832756
24.85000000	0.35925929	0.38539659	0.54372241	0.53347067	0.39550118	0.49937910	0.45889812	0.50008541	0.46720484	0.23930593	0.47402145	0.39572285	0.23015176	0.50330603	0.39113868	0.43827057	0.28625108	0.29890323	0.27528932	0.36830326	0.38294417	0.53389693	0.52512284	0.38628392	0.50687063	0.46674252	0.49785982	0.46380736	0.23745743	0.47188840	0.42579446	0.23357436	0.47706097	0.41910716	0.47160438	0.27890487	0.29205963	0.26807059
24.86000000	0.35866455	0.38552849	0.54425971	0.53385524	0.39603915	0.49889088	0.45838665	0.50020142	0.46739343	0.23941523	0.47415015	0.39521210	0.22972581	0.50414727	0.39046015	0.43749976	0.28709138	0.29973136	0.27612323	0.36811860	0.38300340	0.53411982	0.52536231	0.38649273	0.50671612	0.46658087	0.49791471	0.46388761	0.23749892	0.47193545	0.42578906	0.23360447	0.47704852	0.41910244	0.47157338	0.27883612	0.29199952	0.26800397
24.87000000	0.35807444	0.38565609	0.54477308	0.53420882	0.39656508	0.49840689	0.45787960	0.50031315	0.46757667	0.23952229	0.47427652	0.39468006	0.22926601	0.50503447	0.38973674	0.43668198	0.28798040	0.30061565	0.27700635	0.36804843	0.38302580	0.53420515	0.52543127	0.38657183	0.50665744	0.46651948	0.49793545	0.46391797	0.23751464	0.47195329	0.42561841	0.23357014	0.47721452	0.41895244	0.47136902	0.27891448	0.29206804	0.26807991
24.88000000	0.35750143	0.38577689	0.54524981	0.53452953	0.39706834	0.49793731	0.45738766	0.50041844	0.46775094	0.23962493	0.47439796	0.39412888	0.22877588	0.50596014	0.38897189	0.43582188	0.28890797	0.30154640	0.27792840	0.36810964	0.38300626	0.53413267	0.52530872	0.38650284	0.50670863	0.46657303	0.49791736	0.46389149	0.23750093	0.47193773	0.42529063	0.23347674	0.47755132	0.41866123	0.47099646	0.27912738	0.29225475	0.26828637
24.89000000	0.35696006	0.38588827	0.54567654	0.53479742	0.39753716	0.49749399	0.45692324	0.50051506	0.46791233	0.23972073	0.47451158	0.39356230	0.22825845	0.50691540	0.38817164	0.43492635	0.28986532	0.30251489	0.27888040	0.36830249	0.38294442	0.53390051	0.52499456	0.38628480	0.50686999	0.46674184	0.49786005	0.46380770	0.23745760	0.47188860	0.42482560	0.23332377	0.47804852	0.41824160	0.47047089	0.27947495	0.29256125	0.26862389
24.90000000	0.35646400	0.38598800	0.54604037	0.53486703	0.39796110	0.49708806	0.45649800	0.50060118	0.46805746	0.23980751	0.47461473	0.39298470	0.22771552	0.50789175	0.38734270	0.43400277	0.29084643	0.30351467	0.27985603	0.36862574	0.38283973	0.53350684	0.52449003	0.38591708	0.50714065	0.46702498	0.49776293	0.46366602	0.23738457	0.47180587	0.42424991	0.23311284	0.47868588	0.41771459	0.46981688	0.27995176	0.29298505	0.26908785
24.91000000	0.35602616	0.38607420	0.54633040	0.53479831	0.39833084	0.49672996	0.45612288	0.50067530	0.46818340	0.23988333	0.47470502	0.39240087	0.22714808	0.50888134	0.38649160	0.43305850	0.29184699	0.30454072	0.28085062	0.36909046	0.38268694	0.53293316	0.52378481	0.38538351	0.50753018	0.46743241	0.49762097	0.46345963	0.23727866	0.47168610	0.42359535	0.23285762	0.47942320	0.41711150	0.46907102	0.28052460	0.29349918	0.26964654
24.92000000	0.35565998	0.38614498	0.54653499	0.53464378	0.39863688	0.49643062	0.45580933	0.50073594	0.46828719	0.23994618	0.47477999	0.39181577	0.22655705	0.50987660	0.38562452	0.43210093	0.29286289	0.30558801	0.28185964	0.36972561	0.38247371	0.53213851	0.52285421	0.38464473	0.50806339	0.46799003	0.49742239	0.46317230	0.23713216	0.47152080	0.42289552	0.23258623	0.48020234	0.41647086	0.46827848	0.28112825	0.29404666	0.27023673
24.93000000	0.35537884	0.38619852	0.54664269	0.53439328	0.39886989	0.49620088	0.45556869	0.50078166	0.46836592	0.23999409	0.47483723	0.39123421	0.22594270	0.51087083	0.38474678	0.43113667	0.29389105	0.30665233	0.28287960	0.37056136	0.38218518	0.53107769	0.52166410	0.38365560	0.50876653	0.46872516	0.49715289	0.46278475	0.23693624	0.47130042	0.42217921	0.23233176	0.48096643	0.41582757	0.46748008	0.28168882	0.29456015	0.27078602
24.94000000	0.35519708	0.38623277	0.54664086	0.53403409	0.39901963	0.49605239	0.45541316	0.50081084	0.46841639	0.24002490	0.47487408	0.39066033	0.22530359	0.51185891	0.38386231	0.43017065	0.29493098	0.30773210	0.28390956	0.37158263	0.38181996	0.52975987	0.52023364	0.38242016	0.50962819	0.46962573	0.49681057	0.46229611	0.23669187	0.47102661	0.42146330	0.23211493	0.48168664	0.41519824	0.46669467	0.28216211	0.29499738	0.27125061
24.95000000	0.35513353	0.38624468	0.54651163	0.53354752	0.39907182	0.49600047	0.45535879	0.50082098	0.46843396	0.24003565	0.47488693	0.39009748	0.22463615	0.51283799	0.38297373	0.42920584	0.29598606	0.30882975	0.28495247	0.37268162	0.38141082	0.52831334	0.51868834	0.38105703	0.51055862	0.47059777	0.49642559	0.46175108	0.23642262	0.47072632	0.42074896	0.23192984	0.48238001	0.41457103	0.46590709	0.28256283	0.29537015	0.27164454
24.96000000	0.35521325	0.38622973	0.54622968	0.53290667	0.39900634	0.49606560	0.45542700	0.50080826	0.46841192	0.24002217	0.47487080	0.38954749	0.22393481	0.51380749	0.38208210	0.42824279	0.29706309	0.30995123	0.28601469	0.37366281	0.38103083	0.52699299	0.51726929	0.37980974	0.51139228	0.47146831	0.49606675	0.46124694	0.23617658	0.47045314	0.42002365	0.23174165	0.48310682	0.41390796	0.46507101	0.28296706	0.29574853	0.27204240
24.97000000	0.35546645	0.38618191	0.54576304	0.53207701	0.39879747	0.49627246	0.45564367	0.50076749	0.46834148	0.23997919	0.47481942	0.38900959	0.22319172	0.51476897	0.38118570	0.42727829	0.29817128	0.31110502	0.28710497	0.37431461	0.38077045	0.52609096	0.51625263	0.37896500	0.51194771	0.47204810	0.49582018	0.46090254	0.23601011	0.47026897	0.41926872	0.23149917	0.48394579	0.41316067	0.46412824	0.28348315	0.29623495	0.27255103
24.98000000	0.35592410	0.38609404	0.54507500	0.53101822	0.39841643	0.49664652	0.45603548	0.50069233	0.46821247	0.23990090	0.47472596	0.38848018	0.22239511	0.51572779	0.38027393	0.42630358	0.29932409	0.31230375	0.28823610	0.37449829	0.38069589	0.52580722	0.51582475	0.37872458	0.51210447	0.47221170	0.49574949	0.46080409	0.23596275	0.47021668	0.41846913	0.23115748	0.48495639	0.41229258	0.46303584	0.28420109	0.29691766	0.27325973
